STARTFONT 2.1
COMMENT $XConsortium: lubR24.bdf,v 1.10 94/04/02 16:25:29 gildea Exp $
COMMENT  (c) Copyright Bigelow & Holmes 1986, 1985. Lucida is a registered
COMMENT  trademark of Bigelow & Holmes. See LEGAL NOTICE file for terms 
COMMENT  of the license. 
COMMENT  
COMMENT  Translation to ISO8859-2 by Cub Soft;  Petr.Kolar@vslib.cz
COMMENT  
FONT -B&H-LucidaBright-Medium-R-Normal--34-240-100-100-P-193-ISO8859-2
SIZE 24 100 100
FONTBOUNDINGBOX 85 39 -21 -7
STARTPROPERTIES 20
COMMENT Begin LogicalFontDescription
FONTNAME_REGISTRY ""
FOUNDRY "B&H"
FAMILY_NAME "LucidaBright"
WEIGHT_NAME "Medium"
SLANT "R"
SETWIDTH_NAME "Normal"
ADD_STYLE_NAME ""
PIXEL_SIZE 34
POINT_SIZE 240
RESOLUTION_X 100
RESOLUTION_Y 100
SPACING "P"
AVERAGE_WIDTH 193
CHARSET_REGISTRY "ISO8859"
CHARSET_ENCODING "2"
COMMENT END LogicalFontDescription
FONT_ASCENT 31
FONT_DESCENT 8
DEFAULT_CHAR 0
COPYRIGHT "Copyright Bigelow & Holmes 1986, 1985., Copyright 1996 Cub Soft"
FACE_NAME "Lucida Bright"
ENDPROPERTIES
CHARS 191
STARTCHAR space
ENCODING 32
SWIDTH 333 0
DWIDTH 10 0
BBX 1 1 0 0
BITMAP
00
ENDCHAR
STARTCHAR exclam
ENCODING 33
SWIDTH 265 0
DWIDTH 9 0
BBX 3 25 3 0
BITMAP
e0
e0
e0
e0
e0
e0
e0
e0
e0
e0
e0
e0
40
40
40
40
40
40
00
00
00
00
e0
e0
e0
ENDCHAR
STARTCHAR quotedbl
ENCODING 34
SWIDTH 386 0
DWIDTH 13 0
BBX 9 9 2 17
BITMAP
e380
e380
e380
e380
e380
4100
4100
4100
4100
ENDCHAR
STARTCHAR numbersign
ENCODING 35
SWIDTH 608 0
DWIDTH 21 0
BBX 21 25 0 0
BITMAP
0060c0
006180
006180
00c180
00c180
00c300
00c300
3ffff8
3ffff8
018600
018600
030600
030600
030c00
030c00
ffffe0
ffffe0
061c00
061800
0e1800
0c1800
0c1800
0c3000
1c3000
183000
ENDCHAR
STARTCHAR dollar
ENCODING 36
SWIDTH 608 0
DWIDTH 21 0
BBX 14 30 3 -3
BITMAP
0100
0100
0ff0
1d1c
390c
710c
710c
7100
7100
7100
7900
3d00
1f00
0f80
07c0
01f0
01f8
017c
013c
011c
011c
011c
c11c
c118
c138
f170
3fc0
0100
0100
0100
ENDCHAR
STARTCHAR percent
ENCODING 37
SWIDTH 675 0
DWIDTH 23 0
BBX 24 25 0 0
BITMAP
1f0007
30800e
60c01c
404038
c06030
c06060
c060c0
c061c0
c06380
404700
60ce00
208c00
1f1800
0030f8
007184
00e306
01c603
038603
030603
060603
0c0603
1c0603
380306
700104
e000f8
ENDCHAR
STARTCHAR ampersand
ENCODING 38
SWIDTH 690 0
DWIDTH 23 0
BBX 22 25 1 0
BITMAP
01f800
030e00
070600
0e0700
0e0700
0e0700
0e0700
0f0e00
078c00
079800
07e000
1de000
38f1fc
70f030
607830
e03830
e03c20
e01e20
e00f60
f00740
700380
7801c0
3e07e0
1ff9f8
07e0fc
ENDCHAR
STARTCHAR apostrophe
ENCODING 39
SWIDTH 265 0
DWIDTH 9 0
BBX 4 10 3 16
BITMAP
f0
f0
f0
f0
30
30
30
60
e0
80
ENDCHAR
STARTCHAR parenleft
ENCODING 40
SWIDTH 316 0
DWIDTH 11 0
BBX 7 32 2 -6
BITMAP
02
06
0c
08
18
10
30
30
70
60
60
e0
e0
e0
e0
e0
e0
e0
e0
e0
e0
60
60
70
30
30
30
18
08
0c
06
02
ENDCHAR
STARTCHAR parenright
ENCODING 41
SWIDTH 316 0
DWIDTH 11 0
BBX 7 32 2 -6
BITMAP
80
c0
60
20
30
18
18
18
1c
0c
0c
0e
0e
0e
0e
0e
0e
0e
0e
0e
0e
0c
0c
1c
18
18
18
30
20
60
c0
80
ENDCHAR
STARTCHAR asterisk
ENCODING 42
SWIDTH 470 0
DWIDTH 16 0
BBX 13 12 2 13
BITMAP
0700
0700
0200
4208
f278
78f0
0000
0500
0d80
18c0
38e0
1040
ENDCHAR
STARTCHAR plus
ENCODING 43
SWIDTH 608 0
DWIDTH 21 0
BBX 20 21 0 0
BITMAP
006000
006000
006000
006000
006000
006000
006000
006000
006000
fffff0
fffff0
006000
006000
006000
006000
006000
006000
006000
006000
006000
006000
ENDCHAR
STARTCHAR comma
ENCODING 44
SWIDTH 265 0
DWIDTH 9 0
BBX 4 11 3 -6
BITMAP
f0
f0
f0
f0
f0
30
30
30
20
60
c0
ENDCHAR
STARTCHAR minus
ENCODING 45
SWIDTH 608 0
DWIDTH 21 0
BBX 20 2 0 9
BITMAP
fffff0
fffff0
ENDCHAR
STARTCHAR period
ENCODING 46
SWIDTH 265 0
DWIDTH 9 0
BBX 4 3 3 0
BITMAP
f0
f0
f0
ENDCHAR
STARTCHAR slash
ENCODING 47
SWIDTH 512 0
DWIDTH 17 0
BBX 17 32 0 -6
BITMAP
000180
000300
000300
000600
000600
000c00
000c00
001c00
001800
003800
003000
003000
006000
006000
00c000
00c000
018000
018000
030000
030000
060000
060000
0e0000
0c0000
1c0000
180000
180000
300000
300000
600000
600000
c00000
ENDCHAR
STARTCHAR zero
ENCODING 48
SWIDTH 608 0
DWIDTH 21 0
BBX 17 25 2 0
BITMAP
03e000
0c1800
180c00
300600
300600
700700
600300
600300
e00380
e00380
e00380
e00380
e00380
e00380
e00380
e00380
e00380
600300
600300
700700
300600
300600
180c00
0c1800
03e000
ENDCHAR
STARTCHAR one
ENCODING 49
SWIDTH 608 0
DWIDTH 21 0
BBX 12 25 4 0
BITMAP
ff00
0f00
0700
0700
0700
0700
0700
0700
0700
0700
0700
0700
0700
0700
0700
0700
0700
0700
0700
0700
0700
0700
0700
0f80
fff0
ENDCHAR
STARTCHAR two
ENCODING 50
SWIDTH 608 0
DWIDTH 21 0
BBX 15 25 3 0
BITMAP
0fe0
7838
701c
601c
600e
600e
000e
000e
000e
000c
001c
0038
0070
00c0
0180
0300
0400
0800
1800
3000
7000
7000
fffe
fffe
fffe
ENDCHAR
STARTCHAR three
ENCODING 51
SWIDTH 608 0
DWIDTH 21 0
BBX 14 25 3 0
BITMAP
3f80
f0e0
c070
c038
c038
0038
0038
0038
0030
0070
01e0
1f80
00e0
0078
0038
001c
001c
001c
001c
001c
c01c
c038
c070
f0e0
7f80
ENDCHAR
STARTCHAR four
ENCODING 52
SWIDTH 608 0
DWIDTH 21 0
BBX 17 25 1 0
BITMAP
000c00
001c00
003c00
003c00
005c00
009c00
019c00
011c00
021c00
041c00
0c1c00
081c00
101c00
301c00
601c00
401c00
ffff80
ffff80
001c00
001c00
001c00
001c00
001c00
003e00
00ff80
ENDCHAR
STARTCHAR five
ENCODING 53
SWIDTH 608 0
DWIDTH 21 0
BBX 13 25 4 0
BITMAP
fff8
fff8
fff8
8000
8000
8000
8000
8000
8000
8000
fe00
0780
00e0
0070
0030
0038
0038
0038
0038
0038
c030
c070
c0e0
e1c0
ff00
ENDCHAR
STARTCHAR six
ENCODING 54
SWIDTH 608 0
DWIDTH 21 0
BBX 17 25 2 0
BITMAP
01fc00
060f00
180300
180300
300300
700000
700000
600000
e00000
e3f000
ec1c00
f80600
f00700
e00300
e00380
e00380
e00380
600380
600380
700380
300700
380700
180e00
0e1c00
03f000
ENDCHAR
STARTCHAR seven
ENCODING 55
SWIDTH 608 0
DWIDTH 21 0
BBX 16 25 3 0
BITMAP
ffff
ffff
ffff
0002
0004
000c
0008
0010
0030
0060
0040
00c0
0180
0300
0300
0600
0e00
0c00
1c00
1c00
3800
3800
3800
7000
7000
ENDCHAR
STARTCHAR eight
ENCODING 56
SWIDTH 608 0
DWIDTH 21 0
BBX 16 25 2 0
BITMAP
07e0
1c38
381c
300e
700e
700e
700e
780e
3c1c
3e18
1fb0
07e0
1bf0
30fc
703e
601e
e00f
e007
e007
e007
e007
700e
700c
1c38
07e0
ENDCHAR
STARTCHAR nine
ENCODING 57
SWIDTH 608 0
DWIDTH 21 0
BBX 17 25 2 0
BITMAP
07e000
1c3800
380c00
700e00
700700
e00700
e00300
e00380
e00380
e00380
e00380
600380
700780
300f80
1c1380
07e380
000380
000300
000700
000700
600600
600c00
600800
783000
1fc000
ENDCHAR
STARTCHAR colon
ENCODING 58
SWIDTH 265 0
DWIDTH 9 0
BBX 3 18 3 0
BITMAP
e0
e0
e0
00
00
00
00
00
00
00
00
00
00
00
00
e0
e0
e0
ENDCHAR
STARTCHAR semicolon
ENCODING 59
SWIDTH 265 0
DWIDTH 9 0
BBX 3 24 3 -6
BITMAP
e0
e0
e0
00
00
00
00
00
00
00
00
00
00
00
00
e0
e0
e0
60
60
60
60
40
c0
ENDCHAR
STARTCHAR less
ENCODING 60
SWIDTH 608 0
DWIDTH 21 0
BBX 20 21 0 0
BITMAP
000010
000070
0001e0
0007c0
001f00
007c00
01f000
03c000
0f0000
3c0000
f00000
3c0000
0f0000
03c000
01f000
007c00
001f00
0007c0
0001e0
000070
000010
ENDCHAR
STARTCHAR equal
ENCODING 61
SWIDTH 608 0
DWIDTH 21 0
BBX 20 9 0 5
BITMAP
fffff0
fffff0
000000
000000
000000
000000
000000
fffff0
fffff0
ENDCHAR
STARTCHAR greater
ENCODING 62
SWIDTH 608 0
DWIDTH 21 0
BBX 20 21 0 0
BITMAP
800000
e00000
780000
3e0000
0f8000
03e000
00f800
003c00
000f00
0003c0
0000f0
0003c0
000f00
003c00
00f800
03e000
0f8000
3e0000
780000
e00000
800000
ENDCHAR
STARTCHAR question
ENCODING 63
SWIDTH 480 0
DWIDTH 16 0
BBX 13 25 2 0
BITMAP
3f80
e0e0
c070
c038
c038
c038
0038
0038
0070
0060
00c0
0180
0300
0200
0600
0e00
0e00
0e00
0e00
0000
0000
0000
0e00
0e00
0e00
ENDCHAR
STARTCHAR at
ENCODING 64
SWIDTH 873 0
DWIDTH 30 0
BBX 26 25 2 0
BITMAP
000fe000
00703800
01800600
03000300
04000100
080f0080
101fe080
2021e040
2040e040
4080e040
4181c040
8181c040
8101c040
8303c0c0
8303c080
83058180
830d8100
83998200
41f18400
41e0f800
20000000
30000000
18000000
06030000
01fc0000
ENDCHAR
STARTCHAR A
ENCODING 65
SWIDTH 744 0
DWIDTH 25 0
BBX 25 25 0 0
BITMAP
00080000
00080000
001c0000
001c0000
003e0000
002e0000
006f0000
00470000
00470000
00838000
00838000
0103c000
0101c000
0101c000
0200e000
0200e000
07fff000
04007000
04007000
08003800
08003800
10003c00
10001c00
30001e00
fc00ff80
ENDCHAR
STARTCHAR B
ENCODING 66
SWIDTH 609 0
DWIDTH 21 0
BBX 18 25 1 0
BITMAP
fff800
3c1e00
1c0700
1c0380
1c0380
1c0380
1c0380
1c0380
1c0300
1c0700
1c0e00
1c3800
1ffc00
1c3f00
1c0f80
1c0380
1c03c0
1c01c0
1c01c0
1c01c0
1c01c0
1c03c0
1c0780
3e0f00
fffc00
ENDCHAR
STARTCHAR C
ENCODING 67
SWIDTH 695 0
DWIDTH 24 0
BBX 20 25 2 0
BITMAP
00ff80
0381f0
0e0070
1c0030
380030
300030
700000
700000
e00000
e00000
e00000
e00000
e00000
e00000
e00000
e00000
700000
700000
700000
380000
3c0000
1e0010
0f8070
03ffe0
00ff00
ENDCHAR
STARTCHAR D
ENCODING 68
SWIDTH 768 0
DWIDTH 26 0
BBX 24 25 1 0
BITMAP
ffff00
3c03e0
1c00f0
1c0038
1c001c
1c000e
1c000e
1c000e
1c0007
1c0007
1c0007
1c0007
1c0007
1c0007
1c0007
1c0007
1c0006
1c000e
1c000e
1c000c
1c001c
1c0038
1c0070
3e03c0
ffff00
ENDCHAR
STARTCHAR E
ENCODING 69
SWIDTH 566 0
DWIDTH 19 0
BBX 17 25 1 0
BITMAP
ffff00
1c0700
1c0300
1c0300
1c0000
1c0000
1c0000
1c0000
1c0000
1c0000
1c0400
1c0400
1ffc00
1c0400
1c0400
1c0000
1c0000
1c0000
1c0000
1c0000
1c0000
1c0180
1c0180
3e0380
ffff80
ENDCHAR
STARTCHAR F
ENCODING 70
SWIDTH 548 0
DWIDTH 19 0
BBX 16 25 1 0
BITMAP
ffff
1c07
1c03
1c03
1c00
1c00
1c00
1c00
1c00
1c00
1c04
1c04
1ffc
1c04
1c04
1c00
1c00
1c00
1c00
1c00
1c00
1c00
1c00
3e00
ffc0
ENDCHAR
STARTCHAR G
ENCODING 71
SWIDTH 732 0
DWIDTH 25 0
BBX 23 25 2 0
BITMAP
00ff80
0781f0
0e0070
1c0030
380030
700030
700000
700000
e00000
e00000
e00000
e00000
e00000
e00000
e003fe
e000f8
600070
700070
700070
380070
380070
1c0070
0e0070
03c070
00ff80
ENDCHAR
STARTCHAR H
ENCODING 72
SWIDTH 771 0
DWIDTH 26 0
BBX 25 25 1 0
BITMAP
ff80ff80
3e003e00
1c001c00
1c001c00
1c001c00
1c001c00
1c001c00
1c001c00
1c001c00
1c001c00
1c001c00
1ffffc00
1c001c00
1c001c00
1c001c00
1c001c00
1c001c00
1c001c00
1c001c00
1c001c00
1c001c00
1c001c00
1c001c00
3e003e00
ff80ff80
ENDCHAR
STARTCHAR I
ENCODING 73
SWIDTH 325 0
DWIDTH 11 0
BBX 9 25 1 0
BITMAP
ff80
3e00
1c00
1c00
1c00
1c00
1c00
1c00
1c00
1c00
1c00
1c00
1c00
1c00
1c00
1c00
1c00
1c00
1c00
1c00
1c00
1c00
1c00
3e00
ff80
ENDCHAR
STARTCHAR J
ENCODING 74
SWIDTH 422 0
DWIDTH 14 0
BBX 13 31 0 -6
BITMAP
0ff8
03e0
01c0
01c0
01c0
01c0
01c0
01c0
01c0
01c0
01c0
01c0
01c0
01c0
01c0
01c0
01c0
01c0
01c0
01c0
01c0
01c0
01c0
01c0
01c0
01c0
c180
c180
c380
e700
fc00
ENDCHAR
STARTCHAR K
ENCODING 75
SWIDTH 708 0
DWIDTH 24 0
BBX 23 25 1 0
BITMAP
ff87f8
3e00e0
1c0180
1c0300
1c0200
1c0400
1c0800
1c1000
1c2000
1c4000
1c8000
1d8000
1fc000
1de000
1cf000
1c7800
1c3c00
1c1e00
1c1e00
1c0f00
1c0780
1c03c0
1c01e0
3e01f8
ff87fe
ENDCHAR
STARTCHAR L
ENCODING 76
SWIDTH 557 0
DWIDTH 19 0
BBX 18 25 1 0
BITMAP
ff8000
3e0000
1c0000
1c0000
1c0000
1c0000
1c0000
1c0000
1c0000
1c0000
1c0000
1c0000
1c0000
1c0000
1c0000
1c0000
1c0000
1c0000
1c0000
1c0000
1c0000
1c00c0
1c00c0
3e01c0
ffffc0
ENDCHAR
STARTCHAR M
ENCODING 77
SWIDTH 860 0
DWIDTH 29 0
BBX 28 25 1 0
BITMAP
fe0003f0
3e0007c0
1f000780
1f000780
1b800b80
1b800b80
1bc01b80
19c01380
19c01380
18e02380
18e02380
18f06380
18704380
18704380
18388380
18388380
183d0380
181d0380
181f0380
180e0380
180e0380
180c0380
18040380
3c0007c0
ff001ff0
ENDCHAR
STARTCHAR N
ENCODING 78
SWIDTH 751 0
DWIDTH 26 0
BBX 24 25 1 0
BITMAP
fc007f
3e001c
1e0008
1f0008
1f8008
1bc008
19c008
19e008
18f008
187008
183808
183c08
181e08
180e08
180f08
180788
1803c8
1801c8
1801e8
1800f8
180078
180078
180038
3c0018
ff0008
ENDCHAR
STARTCHAR O
ENCODING 79
SWIDTH 777 0
DWIDTH 26 0
BBX 23 25 2 0
BITMAP
00fe00
0783c0
0e00e0
1c0070
380038
300018
70001c
70001c
e0000e
e0000e
e0000e
e0000e
e0000e
e0000e
e0000e
e0000e
e0000e
70001c
70001c
300018
380038
1c0070
0e00e0
0783c0
00fe00
ENDCHAR
STARTCHAR P
ENCODING 80
SWIDTH 573 0
DWIDTH 19 0
BBX 18 25 1 0
BITMAP
fffc00
3c0f00
1c0380
1c0180
1c01c0
1c01c0
1c01c0
1c01c0
1c01c0
1c0380
1c0380
1c0700
1c1e00
1ff000
1c0000
1c0000
1c0000
1c0000
1c0000
1c0000
1c0000
1c0000
1c0000
3e0000
ff8000
ENDCHAR
STARTCHAR Q
ENCODING 81
SWIDTH 778 0
DWIDTH 26 0
BBX 28 30 2 -5
BITMAP
00fe0000
0783c000
0e00e000
1c007000
38003800
30001800
70001c00
70001c00
e0000c00
e0000e00
e0000e00
e0000e00
e0000e00
e0000e00
e0000e00
e0000e00
e0000e00
70001c00
70001c00
30001c00
38003800
1c007800
0e00f000
0383e000
00ff8000
00010000
0000e000
00003c00
00001fc0
000007f0
ENDCHAR
STARTCHAR R
ENCODING 82
SWIDTH 679 0
DWIDTH 23 0
BBX 23 25 0 0
BITMAP
fffc00
3c0f00
1c0380
1c0180
1c01c0
1c01c0
1c01c0
1c01c0
1c01c0
1c0180
1c0380
1c0700
1c1e00
1ff800
1c3c00
1c1c00
1c1e00
1c0f00
1c0700
1c0780
1c0380
1c01c0
1c01e0
3e00f0
ff807e
ENDCHAR
STARTCHAR S
ENCODING 83
SWIDTH 542 0
DWIDTH 18 0
BBX 15 25 2 0
BITMAP
0ff0
181c
700c
600c
e00c
e000
e000
e000
f000
7c00
3f00
1f80
07e0
01f8
007c
003c
001e
000e
000e
c00e
c00c
c00c
e018
f870
3fc0
ENDCHAR
STARTCHAR T
ENCODING 84
SWIDTH 663 0
DWIDTH 23 0
BBX 21 25 1 0
BITMAP
fffff8
e07038
c07018
c07018
007000
007000
007000
007000
007000
007000
007000
007000
007000
007000
007000
007000
007000
007000
007000
007000
007000
007000
007000
00f800
03fe00
ENDCHAR
STARTCHAR U
ENCODING 85
SWIDTH 719 0
DWIDTH 24 0
BBX 24 25 0 0
BITMAP
ff80ff
3e003c
1c0018
1c0018
1c0018
1c0018
1c0018
1c0018
1c0018
1c0018
1c0018
1c0018
1c0018
1c0018
1c0018
1c0018
1c0018
1c0018
1c0018
1c0010
0e0030
0e0030
070060
0381c0
00ff00
ENDCHAR
STARTCHAR V
ENCODING 86
SWIDTH 699 0
DWIDTH 24 0
BBX 24 25 0 0
BITMAP
ff803f
3c000c
1c000c
1c0008
0e0008
0e0010
0f0010
070030
070020
038020
038040
03c040
01c040
01e080
00e080
00e100
007100
007100
007a00
003a00
003e00
001c00
001c00
001800
000800
ENDCHAR
STARTCHAR W
ENCODING 87
SWIDTH 925 0
DWIDTH 31 0
BBX 31 25 0 0
BITMAP
ff8180fe
3c018018
3c018010
1c01c010
1c03c010
1e03c020
0e03c020
0e04e020
0e04e040
0f04e040
070cf040
07087040
07087080
03887080
03903880
03903900
03903900
01e01d00
01e01d00
01e01e00
01e00e00
00c00e00
00c00c00
00c00c00
00800400
ENDCHAR
STARTCHAR X
ENCODING 88
SWIDTH 657 0
DWIDTH 22 0
BBX 22 25 0 0
BITMAP
ffc0fc
3e0030
0e0060
0f0040
070080
078180
038100
01c200
01e600
00e400
00f800
007800
007800
007c00
00dc00
008e00
010f00
030700
020780
040380
0c03c0
0801c0
1001e0
3000f0
fe07fc
ENDCHAR
STARTCHAR Y
ENCODING 89
SWIDTH 678 0
DWIDTH 23 0
BBX 23 25 0 0
BITMAP
ffc0fe
3e0018
1e0010
0f0020
070020
078040
0380c0
03c080
01c100
00e100
00f200
007400
007c00
003800
003800
003800
003800
003800
003800
003800
003800
003800
003800
007c00
01ff00
ENDCHAR
STARTCHAR Z
ENCODING 90
SWIDTH 633 0
DWIDTH 21 0
BBX 18 25 1 0
BITMAP
7fffc0
700380
600780
600700
600e00
000e00
001c00
003c00
003800
007800
00f000
00e000
01e000
01c000
03c000
078000
070000
0f0000
0e0000
1e0000
3c0000
3c00c0
7800c0
7001c0
ffffc0
ENDCHAR
STARTCHAR bracketleft
ENCODING 91
SWIDTH 316 0
DWIDTH 11 0
BBX 7 32 3 -6
BITMAP
fe
e0
e0
e0
e0
e0
e0
e0
e0
e0
e0
e0
e0
e0
e0
e0
e0
e0
e0
e0
e0
e0
e0
e0
e0
e0
e0
e0
e0
e0
e0
fe
ENDCHAR
STARTCHAR backslash
ENCODING 92
SWIDTH 512 0
DWIDTH 17 0
BBX 17 32 0 -6
BITMAP
c00000
600000
600000
300000
300000
180000
180000
1c0000
0c0000
0e0000
060000
060000
030000
030000
018000
018000
00c000
00c000
006000
006000
003000
003000
003800
001800
001c00
000c00
000c00
000600
000600
000300
000300
000180
ENDCHAR
STARTCHAR bracketright
ENCODING 93
SWIDTH 316 0
DWIDTH 11 0
BBX 7 32 1 -6
BITMAP
fe
0e
0e
0e
0e
0e
0e
0e
0e
0e
0e
0e
0e
0e
0e
0e
0e
0e
0e
0e
0e
0e
0e
0e
0e
0e
0e
0e
0e
0e
0e
fe
ENDCHAR
STARTCHAR asciicircum
ENCODING 94
SWIDTH 608 0
DWIDTH 21 0
BBX 20 21 0 4
BITMAP
002000
006000
006000
00f000
00f000
01f800
019800
039c00
030c00
070e00
060600
060600
0c0300
0c0300
180180
180180
3000c0
3000c0
600060
600060
c00030
ENDCHAR
STARTCHAR underscore
ENCODING 95
SWIDTH 500 0
DWIDTH 17 0
BBX 14 2 2 -3
BITMAP
fffc
fffc
ENDCHAR
STARTCHAR grave
ENCODING 96
SWIDTH 602 0
DWIDTH 20 0
BBX 7 5 6 21
BITMAP
f0
38
18
0c
06
ENDCHAR
STARTCHAR a
ENCODING 97
SWIDTH 543 0
DWIDTH 18 0
BBX 17 18 1 0
BITMAP
0fe000
707800
603800
601c00
001c00
001c00
001c00
03fc00
1c1c00
701c00
701c00
e01c00
e01c00
e01c00
f01c00
786c00
7fce80
1f0780
ENDCHAR
STARTCHAR b
ENCODING 98
SWIDTH 611 0
DWIDTH 21 0
BBX 19 26 0 0
BITMAP
fc0000
3c0000
1c0000
1c0000
1c0000
1c0000
1c0000
1c0000
1c3e00
1cff80
1d8780
1e01c0
1c01c0
1c00e0
1c00e0
1c00e0
1c00e0
1c00e0
1c00e0
1c00e0
1c00c0
1c01c0
1c01c0
1f0380
19ff00
187c00
ENDCHAR
STARTCHAR c
ENCODING 99
SWIDTH 509 0
DWIDTH 17 0
BBX 14 18 2 0
BITMAP
03f8
0c1c
380c
300c
700c
6000
e000
e000
e000
e000
e000
e000
7000
7000
3800
3e04
0ffc
03f0
ENDCHAR
STARTCHAR d
ENCODING 100
SWIDTH 642 0
DWIDTH 22 0
BBX 19 26 2 0
BITMAP
003f00
000f00
000700
000700
000700
000700
000700
000700
07c700
1ff700
381f00
700700
700700
600700
e00700
e00700
e00700
e00700
e00700
e00700
e00700
700700
700f00
3c3700
3fe780
0f87e0
ENDCHAR
STARTCHAR e
ENCODING 101
SWIDTH 530 0
DWIDTH 18 0
BBX 15 18 1 0
BITMAP
07e0
1c38
301c
700c
600e
600e
e00e
fffe
e000
e000
e000
e000
7000
7000
3800
1e06
0ffe
03f8
ENDCHAR
STARTCHAR f
ENCODING 102
SWIDTH 404 0
DWIDTH 14 0
BBX 13 27 1 0
BITMAP
03e0
0e38
0c18
0c18
1c18
1c00
1c00
1c00
1c00
ffe0
1c00
1c00
1c00
1c00
1c00
1c00
1c00
1c00
1c00
1c00
1c00
1c00
1c00
1c00
1c00
3e00
ffc0
ENDCHAR
STARTCHAR g
ENCODING 103
SWIDTH 571 0
DWIDTH 19 0
BBX 18 25 1 -7
BITMAP
07ffc0
1c3c00
381c00
381e00
700e00
700e00
700e00
700e00
700e00
381c00
181800
0c3000
1fe000
380000
700000
700000
3ffe00
1fff00
700780
e00380
e00380
e00380
f00700
381e00
0ff000
ENDCHAR
STARTCHAR h
ENCODING 104
SWIDTH 633 0
DWIDTH 21 0
BBX 21 26 1 0
BITMAP
fc0000
3c0000
1c0000
1c0000
1c0000
1c0000
1c0000
1c0000
1c3e00
1cff80
1dc380
1f01c0
1c01c0
1c01c0
1c01c0
1c01c0
1c01c0
1c01c0
1c01c0
1c01c0
1c01c0
1c01c0
1c01c0
1c01c0
3e03e0
ff8ff8
ENDCHAR
STARTCHAR i
ENCODING 105
SWIDTH 307 0
DWIDTH 10 0
BBX 9 25 1 0
BITMAP
1c00
1c00
1c00
0000
0000
0000
0000
fc00
3c00
1c00
1c00
1c00
1c00
1c00
1c00
1c00
1c00
1c00
1c00
1c00
1c00
1c00
1c00
3e00
ff80
ENDCHAR
STARTCHAR j
ENCODING 106
SWIDTH 346 0
DWIDTH 12 0
BBX 10 32 0 -7
BITMAP
01c0
01c0
01c0
0000
0000
0000
0000
0fc0
03c0
01c0
01c0
01c0
01c0
01c0
01c0
01c0
01c0
01c0
01c0
01c0
01c0
01c0
01c0
01c0
01c0
01c0
01c0
c1c0
c1c0
c180
e300
fe00
ENDCHAR
STARTCHAR k
ENCODING 107
SWIDTH 599 0
DWIDTH 20 0
BBX 20 26 0 0
BITMAP
fc0000
3c0000
1c0000
1c0000
1c0000
1c0000
1c0000
1c0000
1c1fe0
1c0300
1c0600
1c0c00
1c1000
1c2000
1c4000
1d8000
1fc000
1de000
1cf000
1c7800
1c3c00
1c1e00
1c0f00
1c0f80
3e07c0
ff83f0
ENDCHAR
STARTCHAR l
ENCODING 108
SWIDTH 313 0
DWIDTH 11 0
BBX 9 26 1 0
BITMAP
fc00
3c00
1c00
1c00
1c00
1c00
1c00
1c00
1c00
1c00
1c00
1c00
1c00
1c00
1c00
1c00
1c00
1c00
1c00
1c00
1c00
1c00
1c00
1c00
3e00
ff80
ENDCHAR
STARTCHAR m
ENCODING 109
SWIDTH 946 0
DWIDTH 32 0
BBX 31 18 1 0
BITMAP
fc3e0780
3cff1fe0
1d8730e0
1e03c070
1c038070
1c038070
1c038070
1c038070
1c038070
1c038070
1c038070
1c038070
1c038070
1c038070
1c038070
1c038070
3e07c0f8
ff9ff3fe
ENDCHAR
STARTCHAR n
ENCODING 110
SWIDTH 633 0
DWIDTH 21 0
BBX 21 18 1 0
BITMAP
fc3e00
3cff80
1dc380
1f01c0
1c01c0
1c01c0
1c01c0
1c01c0
1c01c0
1c01c0
1c01c0
1c01c0
1c01c0
1c01c0
1c01c0
1c01c0
3e03e0
ff8ff8
ENDCHAR
STARTCHAR o
ENCODING 111
SWIDTH 602 0
DWIDTH 20 0
BBX 17 18 2 0
BITMAP
07f000
1c1c00
380e00
700700
700700
e00380
e00380
e00380
e00380
e00380
e00380
e00380
e00380
700700
700700
380e00
1c1c00
07f000
ENDCHAR
STARTCHAR p
ENCODING 112
SWIDTH 642 0
DWIDTH 22 0
BBX 19 25 1 -7
BITMAP
fc3e00
3cff80
1d8780
1e01c0
1c01c0
1c00e0
1c00e0
1c00e0
1c00e0
1c00e0
1c00e0
1c00e0
1c00c0
1c01c0
1c01c0
1f0380
1dff00
1c7c00
1c0000
1c0000
1c0000
1c0000
1c0000
3e0000
ff8000
ENDCHAR
STARTCHAR q
ENCODING 113
SWIDTH 617 0
DWIDTH 21 0
BBX 19 25 2 -7
BITMAP
07c700
1ff700
381f00
700700
700700
600700
e00700
e00700
e00700
e00700
e00700
e00700
e00700
700700
700f00
3c3700
3fe700
0f8700
000700
000700
000700
000700
000700
000f80
003fe0
ENDCHAR
STARTCHAR r
ENCODING 114
SWIDTH 440 0
DWIDTH 15 0
BBX 13 18 1 0
BITMAP
fc78
3cf8
1d18
1e18
1c18
1c00
1c00
1c00
1c00
1c00
1c00
1c00
1c00
1c00
1c00
1c00
3e00
ff80
ENDCHAR
STARTCHAR s
ENCODING 115
SWIDTH 504 0
DWIDTH 17 0
BBX 13 18 2 0
BITMAP
1fc0
3070
6030
e030
e030
e000
f800
7e00
3f80
0fe0
03f0
0078
c038
c038
c038
e070
f0e0
3f80
ENDCHAR
STARTCHAR t
ENCODING 116
SWIDTH 392 0
DWIDTH 13 0
BBX 11 23 1 0
BITMAP
0c00
1c00
1c00
1c00
1c00
ffe0
1c00
1c00
1c00
1c00
1c00
1c00
1c00
1c00
1c00
1c00
1c00
1c00
1c00
1c00
1c00
0e00
07e0
ENDCHAR
STARTCHAR u
ENCODING 117
SWIDTH 633 0
DWIDTH 21 0
BBX 21 18 0 0
BITMAP
fc0fc0
3c03c0
1c01c0
1c01c0
1c01c0
1c01c0
1c01c0
1c01c0
1c01c0
1c01c0
1c01c0
1c01c0
1c01c0
1c01c0
1c07c0
0e0dc0
0ff9e0
03e1f8
ENDCHAR
STARTCHAR v
ENCODING 118
SWIDTH 545 0
DWIDTH 19 0
BBX 19 18 0 0
BITMAP
ff03e0
7800c0
3c0080
1c0180
1c0100
0e0300
0e0200
0f0200
070400
078400
038800
038800
01d000
01d000
01e000
00e000
00c000
004000
ENDCHAR
STARTCHAR w
ENCODING 119
SWIDTH 795 0
DWIDTH 27 0
BBX 27 18 0 0
BITMAP
ff0207e0
780600c0
38070080
380f0080
3c0f8100
1c0b8100
1c138100
1e13c200
0e31c200
0e21c600
0f20e400
0740e400
0740f800
07c07800
03807800
03803000
03003000
01003000
ENDCHAR
STARTCHAR x
ENCODING 120
SWIDTH 557 0
DWIDTH 19 0
BBX 19 18 0 0
BITMAP
ff07c0
7c0180
1e0300
1e0200
0f0400
078800
039800
01d000
01e000
00f000
017800
027800
043c00
0c1e00
080f00
100f00
700780
fc1fe0
ENDCHAR
STARTCHAR y
ENCODING 121
SWIDTH 551 0
DWIDTH 19 0
BBX 19 25 0 -7
BITMAP
ff03e0
3c00c0
3c0080
1c0180
1c0100
0e0100
0e0200
0f0200
070400
078400
038c00
038800
01c800
01d000
01f000
00e000
00e000
004000
004000
00c000
018000
038000
070000
0f0000
1e0000
ENDCHAR
STARTCHAR z
ENCODING 122
SWIDTH 595 0
DWIDTH 20 0
BBX 15 18 3 0
BITMAP
fffe
e03c
c038
c078
00f0
00e0
01e0
03c0
0380
0780
0f00
0e00
1e00
3c00
3806
7806
f00e
fffe
ENDCHAR
STARTCHAR braceleft
ENCODING 123
SWIDTH 343 0
DWIDTH 12 0
BBX 9 32 1 -6
BITMAP
0380
0400
0800
1800
1800
1800
1800
1c00
1c00
0c00
0c00
0c00
0c00
0800
0800
1000
f000
1800
0800
0c00
0c00
0c00
0c00
1c00
1c00
1c00
1800
1800
1800
0800
0400
0380
ENDCHAR
STARTCHAR bar
ENCODING 124
SWIDTH 241 0
DWIDTH 8 0
BBX 2 32 3 -6
BITMAP
c0
c0
c0
c0
c0
c0
c0
c0
c0
c0
c0
c0
c0
c0
c0
c0
c0
c0
c0
c0
c0
c0
c0
c0
c0
c0
c0
c0
c0
c0
c0
c0
ENDCHAR
STARTCHAR braceright
ENCODING 125
SWIDTH 343 0
DWIDTH 12 0
BBX 9 32 2 -6
BITMAP
e000
1000
0800
0c00
0c00
0c00
0c00
1c00
1c00
1c00
1800
1800
1800
0800
0800
0400
0780
0c00
0800
1800
1800
1800
1800
1c00
1c00
1c00
0c00
0c00
0c00
0800
1000
e000
ENDCHAR
STARTCHAR asciitilde
ENCODING 126
SWIDTH 608 0
DWIDTH 21 0
BBX 20 7 0 6
BITMAP
1e0000
3f8010
63c010
40f030
c03860
801fe0
800780
ENDCHAR
STARTCHAR nobreakspace
ENCODING 160
SWIDTH 333 0
DWIDTH 10 0
BBX 1 1 0 0
BITMAP
00
ENDCHAR
STARTCHAR Aogonek
ENCODING 161
SWIDTH 744 0
DWIDTH 25 0
BBX 25 30 0 -5
BITMAP
00080000
00080000
001c0000
001c0000
003e0000
002e0000
006f0000
00470000
00470000
00838000
00838000
0103c000
0101c000
0101c000
0200e000
0200e000
07fff000
04007000
04007000
08003800
08003800
10003c00
10001c00
30001e00
fc00ff80
000e0000
00180000
00380000
00380000
001f0000
ENDCHAR
STARTCHAR breve
ENCODING 162
SWIDTH 602 0
DWIDTH 20 0
BBX 11 5 5 21
BITMAP
8020
c060
7fc0
3f80
1f00
ENDCHAR
STARTCHAR Lstroke
ENCODING 163
SWIDTH 557 0
DWIDTH 19 0
BBX 18 25 0 0
BITMAP
ff8000
3e0000
1c0000
1c0000
1c0000
1c0000
1c0000
1c0000
1c0000
1c4000
1d8000
1e0000
1c0000
3c0000
dc0000
9c0000
1c0000
1c0000
1c0000
1c0000
1c0000
1c00c0
1c00c0
3e01c0
ffffc0
ENDCHAR
STARTCHAR currency
ENCODING 164
SWIDTH 608 0
DWIDTH 21 0
BBX 19 21 1 2
BITMAP
800020
400040
61f0c0
33f980
160d00
0c0600
180300
180300
300180
300180
300180
300180
300180
180300
180300
0c0600
0f1e00
17fd00
21f080
400040
800020
ENDCHAR
STARTCHAR Lcaron
ENCODING 165
SWIDTH 557 0
DWIDTH 19 0
BBX 18 28 1 0
BITMAP
003c00
003c00
003c00
ffbc00
3e0c00
1c0c00
1c0c00
1c1800
1c3800
1c2000
1c0000
1c0000
1c0000
1c0000
1c0000
1c0000
1c0000
1c0000
1c0000
1c0000
1c0000
1c0000
1c0000
1c0000
1c00c0
1c00c0
3e01c0
ffffc0
ENDCHAR
STARTCHAR Sacute
ENCODING 166
SWIDTH 542 0
DWIDTH 18 0
BBX 15 31 2 0
BITMAP
003c
0070
0060
00c0
0180
0000
0ff0
181c
700c
600c
e00c
e000
e000
e000
f000
7c00
3f00
1f80
07e0
01f8
007c
003c
001e
000e
000e
c00e
c00c
c00c
e018
f870
3fc0
ENDCHAR
STARTCHAR section
ENCODING 167
SWIDTH 608 0
DWIDTH 21 0
BBX 14 31 3 -6
BITMAP
0fe0
3878
7018
6018
e018
e000
e000
f000
7800
7e00
1f80
37e0
61f0
e0f8
e038
e018
f018
f818
7e10
3fb0
0fe0
03f0
00f8
003c
001c
001c
c01c
c01c
e038
f070
3fc0
ENDCHAR
STARTCHAR diaeresis
ENCODING 168
SWIDTH 602 0
DWIDTH 20 0
BBX 9 3 6 22
BITMAP
e380
e380
e380
ENDCHAR
STARTCHAR Scaron
ENCODING 169
SWIDTH 542 0
DWIDTH 18 0
BBX 15 31 2 0
BITMAP
3018
1830
0c60
07c0
07c0
0000
0ff0
181c
700c
600c
e00c
e000
e000
e000
f000
7c00
3f00
1f80
07e0
01f8
007c
003c
001e
000e
000e
c00e
c00c
c00c
e018
f870
3fc0
ENDCHAR
STARTCHAR Scedilla
ENCODING 170
SWIDTH 542 0
DWIDTH 18 0
BBX 15 33 2 -8
BITMAP
0ff0
181c
700c
600c
e00c
e000
e000
e000
f000
7c00
3f00
1f80
07e0
01f8
007c
003c
001e
000e
000e
c00e
c00c
c00c
e018
f870
3fc0
0100
0300
0300
0180
00c0
00c0
01c0
0780
ENDCHAR
STARTCHAR Tcaron
ENCODING 171
SWIDTH 663 0
DWIDTH 23 0
BBX 21 31 1 0
BITMAP
060300
030600
018c00
00f800
00f800
000000
fffff8
e07038
c07018
c07018
007000
007000
007000
007000
007000
007000
007000
007000
007000
007000
007000
007000
007000
007000
007000
007000
007000
007000
007000
00f800
03fe00
ENDCHAR
STARTCHAR Zacute
ENCODING 172
SWIDTH 633 0
DWIDTH 21 0
BBX 18 31 1 0
BITMAP
000f00
001c00
001800
003000
006000
000000
7fffc0
700380
600780
600700
600e00
000e00
001c00
003c00
003800
007800
00f000
00e000
01e000
01c000
03c000
078000
070000
0f0000
0e0000
1e0000
3c0000
3c00c0
7800c0
7001c0
ffffc0
ENDCHAR
STARTCHAR hyphen
ENCODING 173
SWIDTH 325 0
DWIDTH 11 0
BBX 8 2 2 10
BITMAP
ff
ff
ENDCHAR
STARTCHAR Zcaron
ENCODING 174
SWIDTH 633 0
DWIDTH 21 0
BBX 18 31 1 0
BITMAP
0c0600
060c00
031800
01f000
01f000
000000
7fffc0
700380
600780
600700
600e00
000e00
001c00
003c00
003800
007800
00f000
00e000
01e000
01c000
03c000
078000
070000
0f0000
0e0000
1e0000
3c0000
3c00c0
7800c0
7001c0
ffffc0
ENDCHAR
STARTCHAR Zabovedot
ENCODING 175
SWIDTH 633 0
DWIDTH 21 0
BBX 18 29 1 0
BITMAP
00e000
00e000
00e000
000000
7fffc0
700380
600780
600700
600e00
000e00
001c00
003c00
003800
007800
00f000
00e000
01e000
01c000
03c000
078000
070000
0f0000
0e0000
1e0000
3c0000
3c00c0
7800c0
7001c0
ffffc0
ENDCHAR
STARTCHAR degree
ENCODING 176
SWIDTH 259 0
DWIDTH 9 0
BBX 6 6 1 19
BITMAP
78
cc
84
84
cc
78
ENDCHAR
STARTCHAR aogonek
ENCODING 177
SWIDTH 543 0
DWIDTH 18 0
BBX 17 23 1 -5
BITMAP
0fe000
707800
603800
601c00
001c00
001c00
001c00
03fc00
1c1c00
701c00
701c00
e01c00
e01c00
e01c00
f01c00
786c00
7fce80
1f0780
00e000
018000
038000
038000
01f000
ENDCHAR
STARTCHAR ogonek
ENCODING 178
SWIDTH 602 0
DWIDTH 20 0
BBX 6 5 8 -6
BITMAP
38
60
e0
e0
7c
ENDCHAR
STARTCHAR lstroke
ENCODING 179
SWIDTH 313 0
DWIDTH 11 0
BBX 11 26 0 0
BITMAP
7e00
1e00
0e00
0e00
0e00
0e00
0e00
0e00
0e00
0e20
0e60
0f80
0e00
1e00
6e00
8e00
0e00
0e00
0e00
0e00
0e00
0e00
0e00
0e00
1f00
7fc0
ENDCHAR
STARTCHAR acute
ENCODING 180
SWIDTH 602 0
DWIDTH 20 0
BBX 7 5 7 21
BITMAP
1e
38
30
60
c0
ENDCHAR
STARTCHAR lcaron
ENCODING 181
SWIDTH 390 0
DWIDTH 13 0
BBX 11 29 1 0
BITMAP
01e0
01e0
01e0
fde0
3c60
1c60
1c60
1cc0
1dc0
1d00
1c00
1c00
1c00
1c00
1c00
1c00
1c00
1c00
1c00
1c00
1c00
1c00
1c00
1c00
1c00
1c00
1c00
3e00
ff80
ENDCHAR
STARTCHAR sacute
ENCODING 182
SWIDTH 504 0
DWIDTH 17 0
BBX 13 24 2 0
BITMAP
0078
00e0
00c0
0180
0300
0000
1fc0
3070
6030
e030
e030
e000
f800
7e00
3f80
0fe0
03f0
0078
c038
c038
c038
e070
f0e0
3f80
ENDCHAR
STARTCHAR caron
ENCODING 183
SWIDTH 602 0
DWIDTH 20 0
BBX 11 5 5 21
BITMAP
c060
60c0
3180
1f00
1f00
ENDCHAR
STARTCHAR cedilla
ENCODING 184
SWIDTH 602 0
DWIDTH 20 0
BBX 5 8 8 -7
BITMAP
20
60
60
30
18
18
38
f0
ENDCHAR
STARTCHAR scaron
ENCODING 185
SWIDTH 504 0
DWIDTH 17 0
BBX 13 24 2 0
BITMAP
6030
3060
18c0
0f80
0f80
0000
1fc0
3070
6030
e030
e030
e000
f800
7e00
3f80
0fe0
03f0
0078
c038
c038
c038
e070
f0e0
3f80
ENDCHAR
STARTCHAR scedilla
ENCODING 186
SWIDTH 504 0
DWIDTH 17 0
BBX 13 26 2 -8
BITMAP
1fc0
3070
6030
e030
e030
e000
f800
7e00
3f80
0fe0
03f0
0078
c038
c038
c038
e070
f0e0
3f80
0200
0600
0600
0300
0180
0180
0380
0f00
ENDCHAR
STARTCHAR tcaron
ENCODING 187
SWIDTH 392 0
DWIDTH 13 0
BBX 11 29 1 0
BITMAP
01e0
01e0
01e0
01e0
0060
0060
0c60
1cc0
1dc0
1d00
1c00
ffe0
1c00
1c00
1c00
1c00
1c00
1c00
1c00
1c00
1c00
1c00
1c00
1c00
1c00
1c00
1c00
0e00
07e0
ENDCHAR
STARTCHAR zacute
ENCODING 188
SWIDTH 595 0
DWIDTH 20 0
BBX 15 24 3 0
BITMAP
003c
0070
0060
00c0
0180
0000
fffe
e03c
c038
c078
00f0
00e0
01e0
03c0
0380
0780
0f00
0e00
1e00
3c00
3806
7806
f00e
fffe
ENDCHAR
STARTCHAR doubleacute
ENCODING 189
SWIDTH 602 0
DWIDTH 20 0
BBX 10 5 7 21
BITMAP
1dc0
1b00
3200
6400
c800
ENDCHAR
STARTCHAR zcaron
ENCODING 190
SWIDTH 595 0
DWIDTH 20 0
BBX 15 24 3 0
BITMAP
3018
1830
0c60
07c0
07c0
0000
fffe
e03c
c038
c078
00f0
00e0
01e0
03c0
0380
0780
0f00
0e00
1e00
3c00
3806
7806
f00e
fffe
ENDCHAR
STARTCHAR zabovedot
ENCODING 191
SWIDTH 595 0
DWIDTH 20 0
BBX 15 22 3 0
BITMAP
0380
0380
0380
0000
fffe
e03c
c038
c078
00f0
00e0
01e0
03c0
0380
0780
0f00
0e00
1e00
3c00
3806
7806
f00e
fffe
ENDCHAR
STARTCHAR Racute
ENCODING 192
SWIDTH 679 0
DWIDTH 23 0
BBX 23 31 0 0
BITMAP
001e00
003800
003000
006000
00c000
000000
fffc00
3c0f00
1c0380
1c0180
1c01c0
1c01c0
1c01c0
1c01c0
1c01c0
1c0180
1c0380
1c0700
1c1e00
1ff800
1c3c00
1c1c00
1c1e00
1c0f00
1c0700
1c0780
1c0380
1c01c0
1c01e0
3e00f0
ff807e
ENDCHAR
STARTCHAR Aacute
ENCODING 193
SWIDTH 744 0
DWIDTH 25 0
BBX 25 32 0 0
BITMAP
000f0000
001c0000
00180000
00300000
00600000
00000000
00000000
00080000
00080000
001c0000
001c0000
003e0000
002e0000
006f0000
00470000
00470000
00838000
00838000
0103c000
0101c000
0101c000
0200e000
0200e000
07fff000
04007000
04007000
08003800
08003800
10003c00
10001c00
30001e00
fc00ff80
ENDCHAR
STARTCHAR Acircumflex
ENCODING 194
SWIDTH 744 0
DWIDTH 25 0
BBX 25 32 0 0
BITMAP
003e0000
003e0000
00770000
00c18000
0180c000
00000000
00000000
00080000
00080000
001c0000
001c0000
003e0000
002e0000
006f0000
00470000
00470000
00838000
00838000
0103c000
0101c000
0101c000
0200e000
0200e000
07fff000
04007000
04007000
08003800
08003800
10003c00
10001c00
30001e00
fc00ff80
ENDCHAR
STARTCHAR Abreve
ENCODING 195
SWIDTH 744 0
DWIDTH 25 0
BBX 25 31 0 0
BITMAP
01004000
0180c000
00ff8000
007f0000
003e0000
00000000
00080000
00080000
001c0000
001c0000
003e0000
002e0000
006f0000
00470000
00470000
00838000
00838000
0103c000
0101c000
0101c000
0200e000
0200e000
07fff000
04007000
04007000
08003800
08003800
10003c00
10001c00
30001e00
fc00ff80
ENDCHAR
STARTCHAR Adiaeresis
ENCODING 196
SWIDTH 744 0
DWIDTH 25 0
BBX 25 30 0 0
BITMAP
00e38000
00e38000
00e38000
00000000
00000000
00080000
00080000
001c0000
001c0000
003e0000
002e0000
006f0000
00470000
00470000
00838000
00838000
0103c000
0101c000
0101c000
0200e000
0200e000
07fff000
04007000
04007000
08003800
08003800
10003c00
10001c00
30001e00
fc00ff80
ENDCHAR
STARTCHAR Lacute
ENCODING 197
SWIDTH 557 0
DWIDTH 19 0
BBX 18 31 1 0
BITMAP
01e000
038000
030000
060000
0c0000
000000
ff8000
3e0000
1c0000
1c0000
1c0000
1c0000
1c0000
1c0000
1c0000
1c0000
1c0000
1c0000
1c0000
1c0000
1c0000
1c0000
1c0000
1c0000
1c0000
1c0000
1c0000
1c00c0
1c00c0
3e01c0
ffffc0
ENDCHAR
STARTCHAR Cacute
ENCODING 198
SWIDTH 695 0
DWIDTH 24 0
BBX 20 31 2 0
BITMAP
0003c0
000700
000600
000c00
001800
000000
00ff80
0381f0
0e0070
1c0030
380030
300030
700000
700000
e00000
e00000
e00000
e00000
e00000
e00000
e00000
e00000
700000
700000
700000
380000
3c0000
1e0010
0f8070
03ffe0
00ff00
ENDCHAR
STARTCHAR Ccedilla
ENCODING 199
SWIDTH 695 0
DWIDTH 24 0
BBX 20 32 2 -7
BITMAP
00ff80
0381f0
0e0070
1c0030
380030
300030
700000
700000
e00000
e00000
e00000
e00000
e00000
e00000
e00000
e00000
700000
700000
700000
380000
3c0000
1e0010
0f8070
03ffe0
00ff00
006000
006000
003000
001800
001800
003800
00f000
ENDCHAR
STARTCHAR Ccaron
ENCODING 200
SWIDTH 695 0
DWIDTH 24 0
BBX 20 31 2 0
BITMAP
030180
018300
00c600
007c00
007c00
000000
00ff80
0381f0
0e0070
1c0030
380030
300030
700000
700000
e00000
e00000
e00000
e00000
e00000
e00000
e00000
e00000
700000
700000
700000
380000
3c0000
1e0010
0f8070
03ffe0
00ff00
ENDCHAR
STARTCHAR Eacute
ENCODING 201
SWIDTH 566 0
DWIDTH 19 0
BBX 17 32 1 0
BITMAP
007800
00e000
00c000
018000
030000
000000
000000
ffff00
1c0700
1c0300
1c0300
1c0000
1c0000
1c0000
1c0000
1c0000
1c0000
1c0400
1c0400
1ffc00
1c0400
1c0400
1c0000
1c0000
1c0000
1c0000
1c0000
1c0000
1c0180
1c0180
3e0380
ffff80
ENDCHAR
STARTCHAR Eogonek
ENCODING 202
SWIDTH 566 0
DWIDTH 19 0
BBX 17 30 1 -5
BITMAP
ffff00
1c0700
1c0300
1c0300
1c0000
1c0000
1c0000
1c0000
1c0000
1c0000
1c0400
1c0400
1ffc00
1c0400
1c0400
1c0000
1c0000
1c0000
1c0000
1c0000
1c0000
1c0180
1c0180
3e0380
ffff80
00e000
018000
038000
038000
01f000
ENDCHAR
STARTCHAR Ediaeresis
ENCODING 203
SWIDTH 566 0
DWIDTH 19 0
BBX 17 30 1 0
BITMAP
0e3800
0e3800
0e3800
000000
000000
ffff00
1c0700
1c0300
1c0300
1c0000
1c0000
1c0000
1c0000
1c0000
1c0000
1c0400
1c0400
1ffc00
1c0400
1c0400
1c0000
1c0000
1c0000
1c0000
1c0000
1c0000
1c0180
1c0180
3e0380
ffff80
ENDCHAR
STARTCHAR Ecaron
ENCODING 204
SWIDTH 566 0
DWIDTH 19 0
BBX 17 31 1 0
BITMAP
301800
183000
0c6000
07c000
07c000
000000
ffff00
1c0700
1c0300
1c0300
1c0000
1c0000
1c0000
1c0000
1c0000
1c0000
1c0400
1c0400
1ffc00
1c0400
1c0400
1c0000
1c0000
1c0000
1c0000
1c0000
1c0000
1c0180
1c0180
3e0380
ffff80
ENDCHAR
STARTCHAR Iacute
ENCODING 205
SWIDTH 325 0
DWIDTH 11 0
BBX 9 32 1 0
BITMAP
0f00
1c00
1800
3000
6000
0000
0000
ff80
3e00
1c00
1c00
1c00
1c00
1c00
1c00
1c00
1c00
1c00
1c00
1c00
1c00
1c00
1c00
1c00
1c00
1c00
1c00
1c00
1c00
1c00
3e00
ff80
ENDCHAR
STARTCHAR Icircumflex
ENCODING 206
SWIDTH 325 0
DWIDTH 11 0
BBX 11 32 2 0
BITMAP
1f00
1f00
3b80
60c0
c060
0000
0000
7fc0
1f00
0e00
0e00
0e00
0e00
0e00
0e00
0e00
0e00
0e00
0e00
0e00
0e00
0e00
0e00
0e00
0e00
0e00
0e00
0e00
0e00
0e00
1f00
7fc0
ENDCHAR
STARTCHAR Dcaron
ENCODING 207
SWIDTH 768 0
DWIDTH 26 0
BBX 24 31 1 0
BITMAP
0c0600
060c00
031800
01f000
01f000
000000
ffff00
3c03e0
1c00f0
1c0038
1c001c
1c000e
1c000e
1c000e
1c0007
1c0007
1c0007
1c0007
1c0007
1c0007
1c0007
1c0007
1c0006
1c000e
1c000e
1c000c
1c001c
1c0038
1c0070
3e03c0
ffff00
ENDCHAR
STARTCHAR Dstroke
ENCODING 208
SWIDTH 768 0
DWIDTH 26 0
BBX 23 25 1 0
BITMAP
ffff00
3c07c0
1c00e0
1c0070
1c0038
1c001c
1c001c
1c001c
1c000e
1c000e
1c000e
1c000e
fff00e
1c000e
1c000e
1c000e
1c000c
1c001c
1c001c
1c0018
1c0038
1c0070
1c00e0
3e03c0
fffe00
ENDCHAR
STARTCHAR Nacute
ENCODING 209
SWIDTH 751 0
DWIDTH 26 0
BBX 24 31 1 0
BITMAP
0003c0
000700
000600
000c00
001800
000000
fc007f
3e001c
1e0008
1f0008
1f8008
1bc008
19c008
19e008
18f008
187008
183808
183c08
181e08
180e08
180f08
180788
1803c8
1801c8
1801e8
1800f8
180078
180078
180038
3c0018
ff0008
ENDCHAR
STARTCHAR Ncaron
ENCODING 210
SWIDTH 751 0
DWIDTH 26 0
BBX 24 31 1 0
BITMAP
030180
018300
00c600
007c00
007c00
000000
fc007f
3e001c
1e0008
1f0008
1f8008
1bc008
19c008
19e008
18f008
187008
183808
183c08
181e08
180e08
180f08
180788
1803c8
1801c8
1801e8
1800f8
180078
180078
180038
3c0018
ff0008
ENDCHAR
STARTCHAR Oacute
ENCODING 211
SWIDTH 777 0
DWIDTH 26 0
BBX 23 32 2 0
BITMAP
001e00
003800
003000
006000
00c000
000000
000000
00fe00
0783c0
0e00e0
1c0070
380038
300018
70001c
70001c
e0000e
e0000e
e0000e
e0000e
e0000e
e0000e
e0000e
e0000e
e0000e
70001c
70001c
300018
380038
1c0070
0e00e0
0783c0
00fe00
ENDCHAR
STARTCHAR Ocircumflex
ENCODING 212
SWIDTH 777 0
DWIDTH 26 0
BBX 23 32 2 0
BITMAP
007c00
007c00
00ee00
018300
030180
000000
000000
00fe00
0783c0
0e00e0
1c0070
380038
300018
70001c
70001c
e0000e
e0000e
e0000e
e0000e
e0000e
e0000e
e0000e
e0000e
e0000e
70001c
70001c
300018
380038
1c0070
0e00e0
0783c0
00fe00
ENDCHAR
STARTCHAR Odoubleacute
ENCODING 213
SWIDTH 777 0
DWIDTH 26 0
BBX 23 31 2 0
BITMAP
000ee0
000d80
001900
003200
006400
000000
00fe00
0783c0
0e00e0
1c0070
380038
300018
70001c
70001c
e0000e
e0000e
e0000e
e0000e
e0000e
e0000e
e0000e
e0000e
e0000e
70001c
70001c
300018
380038
1c0070
0e00e0
0783c0
00fe00
ENDCHAR
STARTCHAR Odiaeresis
ENCODING 214
SWIDTH 777 0
DWIDTH 26 0
BBX 23 30 2 0
BITMAP
01c700
01c700
01c700
000000
000000
00fe00
0783c0
0e00e0
1c0070
380038
300018
70001c
70001c
e0000e
e0000e
e0000e
e0000e
e0000e
e0000e
e0000e
e0000e
e0000e
70001c
70001c
300018
380038
1c0070
0e00e0
0783c0
00fe00
ENDCHAR
STARTCHAR multiply
ENCODING 215
SWIDTH 608 0
DWIDTH 21 0
BBX 20 21 0 0
BITMAP
400020
e00070
7000e0
3801c0
1c0380
0e0700
060e00
030c00
019800
00f000
006000
00f000
01f800
039c00
070e00
0e0700
1c0380
3801c0
7000e0
e00070
400020
ENDCHAR
STARTCHAR Rcaron
ENCODING 216
SWIDTH 679 0
DWIDTH 23 0
BBX 23 31 0 0
BITMAP
180c00
0c1800
063000
03e000
03e000
000000
fffc00
3c0f00
1c0380
1c0180
1c01c0
1c01c0
1c01c0
1c01c0
1c01c0
1c0180
1c0380
1c0700
1c1e00
1ff800
1c3c00
1c1c00
1c1e00
1c0f00
1c0700
1c0780
1c0380
1c01c0
1c01e0
3e00f0
ff807e
ENDCHAR
STARTCHAR Uring
ENCODING 217
SWIDTH 719 0
DWIDTH 24 0
BBX 24 31 0 0
BITMAP
003800
004400
004400
004400
003800
000000
ff80ff
3e003c
1c0018
1c0018
1c0018
1c0018
1c0018
1c0018
1c0018
1c0018
1c0018
1c0018
1c0018
1c0018
1c0018
1c0018
1c0018
1c0018
1c0018
1c0010
0e0030
0e0030
070060
0381c0
00ff00
ENDCHAR
STARTCHAR Uacute
ENCODING 218
SWIDTH 719 0
DWIDTH 24 0
BBX 24 32 0 0
BITMAP
000f00
001c00
001800
003000
006000
000000
000000
ff80ff
3e003c
1c0018
1c0018
1c0018
1c0018
1c0018
1c0018
1c0018
1c0018
1c0018
1c0018
1c0018
1c0018
1c0018
1c0018
1c0018
1c0018
1c0018
1c0010
0e0030
0e0030
070060
0381c0
00ff00
ENDCHAR
STARTCHAR Udoubleacute
ENCODING 219
SWIDTH 719 0
DWIDTH 24 0
BBX 24 31 0 0
BITMAP
000ee0
000d80
001900
003200
006400
000000
ff80ff
3e003c
1c0018
1c0018
1c0018
1c0018
1c0018
1c0018
1c0018
1c0018
1c0018
1c0018
1c0018
1c0018
1c0018
1c0018
1c0018
1c0018
1c0018
1c0010
0e0030
0e0030
070060
0381c0
00ff00
ENDCHAR
STARTCHAR Udiaeresis
ENCODING 220
SWIDTH 719 0
DWIDTH 24 0
BBX 24 30 0 0
BITMAP
00e380
00e380
00e380
000000
000000
ff80ff
3e003c
1c0018
1c0018
1c0018
1c0018
1c0018
1c0018
1c0018
1c0018
1c0018
1c0018
1c0018
1c0018
1c0018
1c0018
1c0018
1c0018
1c0018
1c0010
0e0030
0e0030
070060
0381c0
00ff00
ENDCHAR
STARTCHAR Yacute
ENCODING 221
SWIDTH 678 0
DWIDTH 23 0
BBX 23 32 0 0
BITMAP
001e00
003800
003000
006000
00c000
000000
000000
ffc0fe
3e0018
1e0010
0f0020
070020
078040
0380c0
03c080
01c100
00e100
00f200
007400
007c00
003800
003800
003800
003800
003800
003800
003800
003800
003800
003800
007c00
01ff00
ENDCHAR
STARTCHAR Tcedilla
ENCODING 222
SWIDTH 663 0
DWIDTH 23 0
BBX 21 33 1 -8
BITMAP
fffff8
e07038
c07018
c07018
007000
007000
007000
007000
007000
007000
007000
007000
007000
007000
007000
007000
007000
007000
007000
007000
007000
007000
007000
00f800
03fe00
002000
006000
006000
003000
001800
001800
003800
00f000
ENDCHAR
STARTCHAR ssharp
ENCODING 223
SWIDTH 614 0
DWIDTH 21 0
BBX 19 27 1 0
BITMAP
03f800
071e00
0e0e00
0c0700
1c0700
1c0700
1c0600
1c0400
1c0c00
1c1800
1c1000
1c3000
1c3800
1c3800
1c3c00
1c1e00
1c0f00
1c0780
1c03c0
1c01e0
1c00e0
1c0060
1c0060
1c3060
1c3040
3e38c0
ffbf00
ENDCHAR
STARTCHAR racute
ENCODING 224
SWIDTH 440 0
DWIDTH 15 0
BBX 13 24 1 0
BITMAP
0078
00e0
00c0
0180
0300
0000
fc78
3cf8
1d18
1e18
1c18
1c00
1c00
1c00
1c00
1c00
1c00
1c00
1c00
1c00
1c00
1c00
3e00
ff80
ENDCHAR
STARTCHAR aacute
ENCODING 225
SWIDTH 543 0
DWIDTH 18 0
BBX 17 25 1 0
BITMAP
00f000
01c000
018000
030000
060000
000000
000000
0fe000
707800
603800
601c00
001c00
001c00
001c00
03fc00
1c1c00
701c00
701c00
e01c00
e01c00
e01c00
f01c00
786c00
7fce80
1f0780
ENDCHAR
STARTCHAR acircumflex
ENCODING 226
SWIDTH 543 0
DWIDTH 18 0
BBX 17 25 1 0
BITMAP
03e000
03e000
077000
0c1800
180c00
000000
000000
0fe000
707800
603800
601c00
001c00
001c00
001c00
03fc00
1c1c00
701c00
701c00
e01c00
e01c00
e01c00
f01c00
786c00
7fce80
1f0780
ENDCHAR
STARTCHAR abreve
ENCODING 227
SWIDTH 543 0
DWIDTH 18 0
BBX 17 24 1 0
BITMAP
401000
603000
3fe000
1fc000
0f8000
000000
0fe000
707800
603800
601c00
001c00
001c00
001c00
03fc00
1c1c00
701c00
701c00
e01c00
e01c00
e01c00
f01c00
786c00
7fce80
1f0780
ENDCHAR
STARTCHAR adiaeresis
ENCODING 228
SWIDTH 543 0
DWIDTH 18 0
BBX 17 23 1 0
BITMAP
0e3800
0e3800
0e3800
000000
000000
0fe000
707800
603800
601c00
001c00
001c00
001c00
03fc00
1c1c00
701c00
701c00
e01c00
e01c00
e01c00
f01c00
786c00
7fce80
1f0780
ENDCHAR
STARTCHAR lacute
ENCODING 229
SWIDTH 313 0
DWIDTH 11 0
BBX 9 32 1 0
BITMAP
0780
0e00
0c00
1800
3000
0000
fc00
3c00
1c00
1c00
1c00
1c00
1c00
1c00
1c00
1c00
1c00
1c00
1c00
1c00
1c00
1c00
1c00
1c00
1c00
1c00
1c00
1c00
1c00
1c00
3e00
ff80
ENDCHAR
STARTCHAR cacute
ENCODING 230
SWIDTH 509 0
DWIDTH 17 0
BBX 14 24 2 0
BITMAP
003c
0070
0060
00c0
0180
0000
03f8
0c1c
380c
300c
700c
6000
e000
e000
e000
e000
e000
e000
7000
7000
3800
3e04
0ffc
03f0
ENDCHAR
STARTCHAR ccedilla
ENCODING 231
SWIDTH 509 0
DWIDTH 17 0
BBX 14 25 2 -7
BITMAP
03f8
0c1c
380c
300c
700c
6000
e000
e000
e000
e000
e000
e000
7000
7000
3800
3e04
0ffc
03f0
0300
0300
0180
00c0
00c0
01c0
0780
ENDCHAR
STARTCHAR ccaron
ENCODING 232
SWIDTH 509 0
DWIDTH 17 0
BBX 14 24 2 0
BITMAP
3018
1830
0c60
07c0
07c0
0000
03f8
0c1c
380c
300c
700c
6000
e000
e000
e000
e000
e000
e000
7000
7000
3800
3e04
0ffc
03f0
ENDCHAR
STARTCHAR eacute
ENCODING 233
SWIDTH 530 0
DWIDTH 18 0
BBX 15 25 1 0
BITMAP
01e0
0380
0300
0600
0c00
0000
0000
07e0
1c38
301c
700c
600e
600e
e00e
fffe
e000
e000
e000
e000
7000
7000
3800
1e06
0ffe
03f8
ENDCHAR
STARTCHAR eogonek
ENCODING 234
SWIDTH 530 0
DWIDTH 18 0
BBX 15 23 1 -5
BITMAP
07e0
1c38
301c
700c
600e
600e
e00e
fffe
e000
e000
e000
e000
7000
7000
3800
1e06
0ffe
03f8
01c0
0300
0700
0700
03e0
ENDCHAR
STARTCHAR ediaeresis
ENCODING 235
SWIDTH 530 0
DWIDTH 18 0
BBX 15 23 1 0
BITMAP
1c70
1c70
1c70
0000
0000
07e0
1c38
301c
700c
600e
600e
e00e
fffe
e000
e000
e000
e000
7000
7000
3800
1e06
0ffe
03f8
ENDCHAR
STARTCHAR ecaron
ENCODING 236
SWIDTH 530 0
DWIDTH 18 0
BBX 15 24 1 0
BITMAP
3018
1830
0c60
07c0
07c0
0000
07e0
1c38
301c
700c
600e
600e
e00e
fffe
e000
e000
e000
e000
7000
7000
3800
1e06
0ffe
03f8
ENDCHAR
STARTCHAR iacute
ENCODING 237
SWIDTH 307 0
DWIDTH 10 0
BBX 9 25 1 0
BITMAP
0f00
1c00
1800
3000
6000
0000
0000
fc00
3c00
1c00
1c00
1c00
1c00
1c00
1c00
1c00
1c00
1c00
1c00
1c00
1c00
1c00
1c00
3e00
ff80
ENDCHAR
STARTCHAR icircumflex
ENCODING 238
SWIDTH 307 0
DWIDTH 10 0
BBX 11 25 2 0
BITMAP
1f00
1f00
3b80
60c0
c060
0000
0000
7e00
1e00
0e00
0e00
0e00
0e00
0e00
0e00
0e00
0e00
0e00
0e00
0e00
0e00
0e00
0e00
1f00
7fc0
ENDCHAR
STARTCHAR dcaron
ENCODING 239
SWIDTH 720 0
DWIDTH 24 0
BBX 21 29 2 0
BITMAP
000078
000078
000078
003f78
000f18
000718
000718
000730
000770
000740
000700
07c700
1ff700
381f00
700700
700700
600700
e00700
e00700
e00700
e00700
e00700
e00700
e00700
700700
700f00
3c3700
3fe780
0f87e0
ENDCHAR
STARTCHAR dstroke
ENCODING 240
SWIDTH 642 0
DWIDTH 22 0
BBX 19 26 2 0
BITMAP
003f00
000f00
000700
000700
003fe0
003fe0
000700
000700
07c700
1ff700
381f00
700700
700700
600700
e00700
e00700
e00700
e00700
e00700
e00700
e00700
700700
700f00
3c3700
3fe780
0f87e0
ENDCHAR
STARTCHAR nacute
ENCODING 241
SWIDTH 633 0
DWIDTH 21 0
BBX 21 24 1 0
BITMAP
001e00
003800
003000
006000
00c000
000000
fc3e00
3cff80
1dc380
1f01c0
1c01c0
1c01c0
1c01c0
1c01c0
1c01c0
1c01c0
1c01c0
1c01c0
1c01c0
1c01c0
1c01c0
1c01c0
3e03e0
ff8ff8
ENDCHAR
STARTCHAR ncaron
ENCODING 242
SWIDTH 633 0
DWIDTH 21 0
BBX 21 24 1 0
BITMAP
180c00
0c1800
063000
03e000
03e000
000000
fc3e00
3cff80
1dc380
1f01c0
1c01c0
1c01c0
1c01c0
1c01c0
1c01c0
1c01c0
1c01c0
1c01c0
1c01c0
1c01c0
1c01c0
1c01c0
3e03e0
ff8ff8
ENDCHAR
STARTCHAR oacute
ENCODING 243
SWIDTH 602 0
DWIDTH 20 0
BBX 17 25 2 0
BITMAP
00f000
01c000
018000
030000
060000
000000
000000
07f000
1c1c00
380e00
700700
700700
e00380
e00380
e00380
e00380
e00380
e00380
e00380
e00380
700700
700700
380e00
1c1c00
07f000
ENDCHAR
STARTCHAR ocircumflex
ENCODING 244
SWIDTH 602 0
DWIDTH 20 0
BBX 17 25 2 0
BITMAP
03e000
03e000
077000
0c1800
180c00
000000
000000
07f000
1c1c00
380e00
700700
700700
e00380
e00380
e00380
e00380
e00380
e00380
e00380
e00380
700700
700700
380e00
1c1c00
07f000
ENDCHAR
STARTCHAR odoubleacute
ENCODING 245
SWIDTH 602 0
DWIDTH 20 0
BBX 17 24 2 0
BITMAP
007700
006c00
00c800
019000
032000
000000
07f000
1c1c00
380e00
700700
700700
e00380
e00380
e00380
e00380
e00380
e00380
e00380
e00380
700700
700700
380e00
1c1c00
07f000
ENDCHAR
STARTCHAR odiaeresis
ENCODING 246
SWIDTH 602 0
DWIDTH 20 0
BBX 17 23 2 0
BITMAP
0e3800
0e3800
0e3800
000000
000000
07f000
1c1c00
380e00
700700
700700
e00380
e00380
e00380
e00380
e00380
e00380
e00380
e00380
700700
700700
380e00
1c1c00
07f000
ENDCHAR
STARTCHAR division
ENCODING 247
SWIDTH 608 0
DWIDTH 21 0
BBX 19 17 1 1
BITMAP
00e000
00e000
00e000
000000
000000
000000
000000
ffffe0
ffffe0
000000
000000
000000
000000
000000
00e000
00e000
00e000
ENDCHAR
STARTCHAR rcaron
ENCODING 248
SWIDTH 440 0
DWIDTH 15 0
BBX 13 24 1 0
BITMAP
6030
3060
18c0
0f80
0f80
0000
fc78
3cf8
1d18
1e18
1c18
1c00
1c00
1c00
1c00
1c00
1c00
1c00
1c00
1c00
1c00
1c00
3e00
ff80
ENDCHAR
STARTCHAR uring
ENCODING 249
SWIDTH 633 0
DWIDTH 21 0
BBX 21 24 0 0
BITMAP
01c000
022000
022000
022000
01c000
000000
fc0fc0
3c03c0
1c01c0
1c01c0
1c01c0
1c01c0
1c01c0
1c01c0
1c01c0
1c01c0
1c01c0
1c01c0
1c01c0
1c01c0
1c07c0
0e0dc0
0ff9e0
03e1f8
ENDCHAR
STARTCHAR uacute
ENCODING 250
SWIDTH 633 0
DWIDTH 21 0
BBX 21 25 0 0
BITMAP
001e00
003800
003000
006000
00c000
000000
000000
fc0fc0
3c03c0
1c01c0
1c01c0
1c01c0
1c01c0
1c01c0
1c01c0
1c01c0
1c01c0
1c01c0
1c01c0
1c01c0
1c01c0
1c07c0
0e0dc0
0ff9e0
03e1f8
ENDCHAR
STARTCHAR udoubleacute
ENCODING 251
SWIDTH 633 0
DWIDTH 21 0
BBX 21 24 0 0
BITMAP
007700
006c00
00c800
019000
032000
000000
fc0fc0
3c03c0
1c01c0
1c01c0
1c01c0
1c01c0
1c01c0
1c01c0
1c01c0
1c01c0
1c01c0
1c01c0
1c01c0
1c01c0
1c07c0
0e0dc0
0ff9e0
03e1f8
ENDCHAR
STARTCHAR udiaeresis
ENCODING 252
SWIDTH 633 0
DWIDTH 21 0
BBX 21 23 0 0
BITMAP
038e00
038e00
038e00
000000
000000
fc0fc0
3c03c0
1c01c0
1c01c0
1c01c0
1c01c0
1c01c0
1c01c0
1c01c0
1c01c0
1c01c0
1c01c0
1c01c0
1c01c0
1c07c0
0e0dc0
0ff9e0
03e1f8
ENDCHAR
STARTCHAR yacute
ENCODING 253
SWIDTH 551 0
DWIDTH 19 0
BBX 19 32 0 -7
BITMAP
007800
00e000
00c000
018000
030000
000000
000000
ff03e0
3c00c0
3c0080
1c0180
1c0100
0e0100
0e0200
0f0200
070400
078400
038c00
038800
01c800
01d000
01f000
00e000
00e000
004000
004000
00c000
018000
038000
070000
0f0000
1e0000
ENDCHAR
STARTCHAR tcedilla
ENCODING 254
SWIDTH 392 0
DWIDTH 13 0
BBX 11 31 1 -8
BITMAP
0c00
1c00
1c00
1c00
1c00
ffe0
1c00
1c00
1c00
1c00
1c00
1c00
1c00
1c00
1c00
1c00
1c00
1c00
1c00
1c00
1c00
0e00
07e0
0400
0c00
0c00
0600
0300
0300
0700
1e00
ENDCHAR
STARTCHAR abovedot
ENCODING 255
SWIDTH 602 0
DWIDTH 20 0
BBX 3 3 9 22
BITMAP
e0
e0
e0
ENDCHAR
ENDFONT
